<?xml version="1.0" standalone="no"?>
<!DOCTYPE svg PUBLIC "-//W3C//DTD SVG 20010904//EN"
 "http://www.w3.org/TR/2001/REC-SVG-20010904/DTD/svg10.dtd">
<svg version="1.0" xmlns="http://www.w3.org/2000/svg"
 width="1024.000000pt" height="1024.000000pt" viewBox="0 0 1024.000000 1024.000000"
 preserveAspectRatio="xMidYMid meet">
<metadata>
Created by potrace 1.14, written by Peter Selinger 2001-2017
</metadata>
<g transform="translate(0.000000,1024.000000) scale(0.100000,-0.100000)"
fill="#000000" stroke="none">
<path d="M5085 9616 c-16 -6 -36 -15 -42 -19 -7 -5 -18 -5 -25 -1 -7 4 -8 3
-4 -4 9 -14 -102 -125 -116 -116 -7 4 -8 3 -4 -5 7 -11 -89 -111 -106 -111 -5
0 -8 -7 -8 -15 0 -8 -4 -15 -9 -15 -4 0 -148 -138 -319 -307 -322 -320 -336
-333 -349 -333 -5 0 -14 -9 -21 -21 -9 -13 -19 -18 -30 -14 -9 3 -14 3 -10 0
7 -7 -22 -45 -34 -45 -4 0 -22 -13 -40 -30 -18 -16 -38 -30 -45 -30 -7 0 -13
-4 -13 -10 0 -5 -12 -16 -27 -24 -16 -8 -44 -29 -63 -45 -56 -49 -59 -51 -69
-51 -5 0 -12 -7 -15 -16 -4 -9 -13 -14 -22 -10 -8 3 -12 2 -9 -4 3 -5 -3 -14
-14 -19 -11 -6 -25 -17 -33 -24 -7 -7 -35 -28 -63 -47 -27 -19 -51 -37 -53
-42 -2 -4 -8 -8 -13 -8 -8 0 -35 -20 -64 -47 -8 -7 -18 -13 -24 -13 -6 0 -11
-4 -11 -10 0 -5 -6 -10 -13 -10 -8 0 -32 -12 -54 -27 -56 -40 -75 -52 -103
-65 -14 -7 -31 -18 -38 -25 -23 -22 -48 -14 -88 28 -21 22 -66 68 -99 101 -33
34 -58 66 -57 72 2 6 0 8 -4 4 -11 -11 -34 12 -34 33 0 11 -3 19 -8 19 -4 0
-17 19 -30 43 -18 34 -41 53 -124 102 -55 33 -117 70 -137 82 -20 12 -54 32
-76 43 -22 12 -58 32 -80 45 -46 28 -92 54 -152 87 -23 13 -52 31 -63 40 -11
10 -20 16 -20 13 0 -5 -192 103 -265 149 -27 18 -57 35 -65 39 -8 4 -28 16
-45 27 -16 11 -50 29 -75 40 -25 11 -52 24 -61 29 -36 21 -117 0 -160 -41 -63
-60 -65 -132 -11 -299 22 -68 86 -266 142 -439 195 -604 208 -642 248 -700 20
-30 92 -111 159 -180 68 -68 123 -128 123 -132 0 -13 -20 -9 -37 7 -23 24 -49
15 -45 -16 l3 -25 -153 1 c-232 0 -251 -15 -249 -197 1 -57 2 -166 3 -243 1
-77 2 -270 1 -430 0 -159 -1 -389 -1 -510 0 -121 -1 -291 -3 -378 -2 -87 0
-157 5 -157 5 0 5 -56 0 -132 -4 -73 -7 -236 -6 -363 1 -126 3 -277 3 -335 1
-58 0 -267 -1 -465 -1 -299 4 -515 14 -630 4 -39 26 -63 82 -89 32 -15 76 -41
100 -57 23 -16 48 -29 54 -29 6 0 13 -7 17 -16 3 -8 23 -22 44 -30 20 -9 40
-22 43 -30 3 -9 10 -13 14 -10 5 3 18 -4 30 -14 12 -11 26 -20 32 -20 5 0 10
-4 10 -10 0 -5 6 -10 13 -10 6 0 26 -13 43 -29 16 -16 39 -31 50 -35 10 -3 31
-17 46 -31 15 -14 31 -25 36 -25 4 0 17 -8 28 -18 20 -17 30 -24 92 -63 24
-16 32 -28 32 -50 0 -16 3 -28 8 -28 39 6 44 0 37 -53 -13 -90 -12 -182 1
-213 7 -16 60 -76 117 -132 l104 -102 189 -5 c104 -2 198 -6 209 -7 30 -4 98
12 112 27 17 17 64 8 85 -16 9 -11 21 -20 27 -20 5 0 16 -8 23 -18 7 -10 27
-27 43 -38 17 -10 42 -30 56 -44 55 -53 137 -126 158 -140 11 -8 21 -21 21
-29 0 -8 2 -12 5 -9 6 5 33 -16 95 -72 145 -131 196 -179 286 -269 57 -57 104
-108 104 -113 0 -5 4 -6 10 -3 5 3 15 -5 22 -19 6 -14 15 -26 20 -26 5 0 40
-31 78 -68 39 -38 70 -67 70 -65 0 7 66 -64 94 -103 17 -21 32 -41 35 -44 4
-3 24 -27 46 -55 22 -27 52 -62 67 -77 16 -16 28 -31 28 -34 0 -3 17 -22 38
-43 20 -22 73 -78 117 -126 178 -195 208 -223 247 -230 50 -9 77 -2 113 32 16
15 33 27 38 25 5 -1 6 2 3 7 -8 13 124 152 137 144 5 -3 7 -1 4 4 -9 14 28 60
53 68 11 4 18 10 15 15 -3 5 5 17 18 27 13 10 25 23 26 28 7 20 136 164 149
164 6 1 12 6 12 12 0 13 25 39 39 39 6 0 8 7 5 15 -4 9 24 44 78 97 113 112
205 198 211 198 3 0 37 32 75 70 38 39 73 70 77 70 8 0 35 26 35 35 0 13 94
100 104 97 6 -2 8 0 4 4 -12 11 75 85 95 80 9 -2 14 0 11 5 -3 5 7 14 23 19
15 6 36 24 45 40 9 17 24 30 33 30 9 0 13 5 10 10 -3 6 -2 10 3 10 4 0 18 9
30 21 12 11 27 17 32 14 6 -3 10 0 10 8 0 17 65 78 74 70 3 -4 6 -1 6 7 0 14
75 90 90 90 6 0 10 7 10 15 0 8 6 15 13 15 7 0 18 9 25 20 7 12 18 18 24 14 6
-4 8 -3 5 3 -8 13 27 46 38 36 4 -5 5 -2 1 5 -11 19 21 26 40 8 28 -29 55 -38
112 -37 32 1 84 1 117 2 33 0 108 -1 167 -4 106 -5 108 -5 128 20 11 14 20 22
20 18 0 -5 11 2 25 15 13 12 23 26 22 30 -3 10 139 161 145 155 6 -7 7 2 9
144 2 131 2 134 58 171 12 8 41 32 63 52 23 21 45 38 50 38 5 0 19 9 31 20 12
11 28 18 36 15 9 -3 12 -3 8 1 -8 8 21 44 35 44 10 0 63 36 94 65 12 11 32 27
44 35 13 8 32 23 42 32 10 10 23 18 29 18 6 0 24 11 41 25 16 14 36 25 44 25
7 0 26 13 41 28 32 32 113 81 151 91 40 11 50 72 52 305 1 110 3 444 6 741 3
297 3 596 2 665 -4 179 -1 1864 4 1995 3 83 0 118 -11 143 -8 17 -19 32 -23
32 -5 0 -7 4 -4 8 3 5 0 9 -7 10 -7 0 -49 5 -95 11 -46 6 -141 8 -213 4 -94
-4 -129 -3 -129 5 0 7 9 12 20 12 13 0 20 7 20 20 0 12 13 33 28 48 16 15 26
34 24 41 -5 15 36 61 55 61 7 0 13 4 13 8 0 5 11 15 25 22 14 7 25 21 25 31 0
10 6 22 14 26 20 12 80 111 104 173 11 30 53 154 92 275 81 249 81 249 81 252
-1 4 48 144 59 168 4 11 16 45 25 75 9 30 19 62 22 70 3 8 7 20 9 25 1 6 21
66 44 135 51 151 62 253 29 294 -10 13 -19 28 -19 33 0 13 -86 47 -117 47 -35
0 -96 -14 -103 -23 -3 -4 -41 -27 -84 -52 -89 -50 -95 -53 -228 -132 -53 -31
-102 -57 -107 -57 -6 0 -11 -4 -11 -9 0 -5 -16 -15 -35 -22 -19 -7 -35 -17
-35 -21 0 -4 -4 -8 -8 -8 -5 0 -46 -22 -92 -50 -46 -27 -87 -47 -91 -44 -4 2
-9 0 -11 -5 -2 -8 -99 -66 -318 -192 -14 -8 -28 -18 -32 -24 -4 -5 -8 -7 -8
-2 0 24 -76 -79 -86 -118 -6 -26 -69 -99 -104 -121 -8 -5 -33 -29 -54 -54 -22
-25 -49 -50 -60 -57 -12 -7 -17 -12 -12 -13 5 0 3 -6 -4 -14 -10 -13 -19 -10
-59 20 -27 19 -53 34 -58 34 -5 0 -18 8 -29 18 -24 21 -122 82 -134 82 -5 0
-10 4 -12 8 -1 4 -25 23 -53 42 -68 48 -74 53 -93 73 -9 9 -22 17 -29 17 -7 0
-13 3 -13 8 0 4 -17 18 -38 32 -20 14 -41 30 -45 37 -4 7 -15 13 -22 13 -8 0
-15 4 -15 8 0 5 -25 26 -55 47 -30 20 -55 41 -55 45 0 4 -11 12 -25 18 -29 13
-41 22 -93 72 -20 19 -49 41 -64 47 -16 7 -28 17 -28 23 0 5 -5 10 -11 10 -7
0 -20 10 -30 22 -11 11 -19 18 -19 14 0 -4 -195 187 -432 424 -385 384 -465
458 -503 466 -5 1 -17 4 -25 7 -8 2 -28 -1 -45 -7z m-1108 -1431 c0 -11 -4
-12 -14 -4 -7 6 -13 13 -13 15 0 2 6 4 13 4 8 0 14 -7 14 -15z m1249 -92 c-7
-7 -26 7 -26 19 0 6 6 6 15 -2 9 -7 13 -15 11 -17z m74 -88 c7 -9 8 -15 2 -15
-5 0 -12 7 -16 15 -3 8 -4 15 -2 15 2 0 9 -7 16 -15z m50 -60 c10 -12 10 -15
-2 -15 -8 0 -15 7 -15 15 0 8 1 15 2 15 2 0 8 -7 15 -15z m110 -100 c7 -9 8
-15 2 -15 -5 0 -12 7 -16 15 -3 8 -4 15 -2 15 2 0 9 -7 16 -15z m-2015 -116
c11 -17 -1 -21 -15 -4 -8 9 -8 15 -2 15 6 0 14 -5 17 -11z m2415 -224 c10 -12
10 -15 -2 -15 -8 0 -15 7 -15 15 0 8 1 15 2 15 2 0 8 -7 15 -15z"/>
</g>
</svg>
